# xmcd
#
# Track frame offsets: 
#        150
#        11392
#        21090
#        31310
#        42077
#        50872
#        60207
#        69937
#        79610
#        89095
#        97937
#        107297
#        116547
#        127855
#        137427
#        147092
#        157175
#        168465
#        178805
#        188702
#        199527
#        211217
#        220620
#
# Disc length: 3091 seconds
#
# Revision: 5
# Processed by: cddbd v1.5.2PL0 Copyright (c) Steve Scherf et al.
# Submitted via: ExactAudioCopy v1.1
#
DISCID=290c1117
DTITLE=Hawkshaw Hawkins - Hawk 1953-61 - Disc 2
DYEAR=1991
DGENRE=Country
TTITLE0=I've Got It Again (mono)
TTITLE1=Sunny side Of The Mountain (1956) (mono)
TTITLE2=You Just Stood There (mono)
TTITLE3=Dark Moon (mono)
TTITLE4=I'll Get Even with You (mono)
TTITLE5=Guilty Of Dreaming (mono)
TTITLE6=Are You Happy (mono)
TTITLE7=She Was Here (mono)
TTITLE8=Freedom (mono)
TTITLE9=It's Easier Said Than Done (mono)
TTITLE10=Sensation (mono)
TTITLE11=(Is My) Ring On Your Finger (mono)
TTITLE12=I've Got It Again (mono)
TTITLE13=Freedom (alt) (mono)
TTITLE14=It Would Be A Doggone Lie (mono)
TTITLE15=My Fate Is In Your Hands (mono)
TTITLE16=I'll Be Gone (mono)
TTITLE17=The Best Of Company (mono)
TTITLE18=Action (mono)
TTITLE19=You Can't Find Happiness That Way (mono)
TTITLE20=I Don't Apologize For Loving You (mono)
TTITLE21=With This Pen (mono)
TTITLE22=Thank You For Thinking Of Me (mono)
EXTD=
EXTT0=
EXTT1=
EXTT2=
EXTT3=
EXTT4=
EXTT5=
EXTT6=
EXTT7=
EXTT8=
EXTT9=
EXTT10=
EXTT11=
EXTT12=
EXTT13=
EXTT14=
EXTT15=
EXTT16=
EXTT17=
EXTT18=
EXTT19=
EXTT20=
EXTT21=
EXTT22=
PLAYORDER=
